<?xml version="1.0" encoding="UTF-8" standalone="no"?>
<svg
   xmlns:dc="http://purl.org/dc/elements/1.1/"
   xmlns:cc="http://creativecommons.org/ns#"
   xmlns:rdf="http://www.w3.org/1999/02/22-rdf-syntax-ns#"
   xmlns:svg="http://www.w3.org/2000/svg"
   xmlns="http://www.w3.org/2000/svg"
   xmlns:sodipodi="http://sodipodi.sourceforge.net/DTD/sodipodi-0.dtd"
   xmlns:inkscape="http://www.inkscape.org/namespaces/inkscape"
   height="800px"
   width="800px"
   version="1.1"
   id="Layer_1"
   viewBox="0 0 512 512"
   xml:space="preserve"
   sodipodi:docname="gauge_okay.svg"
   inkscape:version="1.0 (4035a4fb49, 2020-05-01)"><metadata
   id="metadata1580"><rdf:RDF><cc:Work
       rdf:about=""><dc:format>image/svg+xml</dc:format><dc:type
         rdf:resource="http://purl.org/dc/dcmitype/StillImage" /><dc:title /></cc:Work></rdf:RDF></metadata><defs
   id="defs1578" /><sodipodi:namedview
   inkscape:document-rotation="0"
   pagecolor="#ffffff"
   bordercolor="#666666"
   borderopacity="1"
   objecttolerance="10"
   gridtolerance="10"
   guidetolerance="10"
   inkscape:pageopacity="0"
   inkscape:pageshadow="2"
   inkscape:window-width="1920"
   inkscape:window-height="1001"
   id="namedview1576"
   showgrid="false"
   inkscape:zoom="0.91875"
   inkscape:cx="385.85034"
   inkscape:cy="400"
   inkscape:window-x="-9"
   inkscape:window-y="-9"
   inkscape:window-maximized="1"
   inkscape:current-layer="Layer_1" />
<path
   style="fill:#D6D2C4;"
   d="M395.16,253.844c9.611-20.093,14.996-42.577,14.996-66.296c0-85.002-69.155-154.157-154.157-154.157  s-154.157,69.154-154.157,154.157S170.998,341.704,256,341.704c51.104,0,96.479-24.996,124.544-63.403"
   id="path1537" />
<path
   style="fill:#E5E2DC;"
   d="M368.47,292.852c4.309-4.599,8.348-9.452,12.074-14.551l14.618-24.457  c9.611-20.093,14.996-42.577,14.996-66.296c0-75.076-53.949-137.777-125.113-151.401c-51.608,19.002-88.515,68.664-88.515,126.785  c0,74.466,60.583,135.049,135.049,135.049C344.365,297.982,356.739,296.188,368.47,292.852z"
   id="path1539" />
<path
   style="fill:#ea0028;fill-opacity:1"
   d="M139.418,67.525l25.326,28.453c0,0-40.283,51.128-41.953,87.21H91.928  C91.928,183.187,98.792,106.802,139.418,67.525z"
   id="path1541" />
<path
   style="fill:#ea6428;fill-opacity:1"
   d="M253.637,23.745l-1.111,31.254c0,0-63.783,12.984-88.376,39.44l-24.733-16.206  C139.418,78.232,197.25,27.463,253.637,23.745z"
   id="path1543" />
<path
   style="fill:#FFB92E;"
   d="M367.963,66.783L348.02,90.778c0,0-54.209-36.034-90.308-34.79l-4.075-32.242  C253.637,23.745,325.54,29.452,367.963,66.783z"
   id="path1545" />
<path
   style="fill:#4baf78;fill-opacity:1"
   d="M413.969,186.494l-28.062-4.323c0,0-10.952-64.163-36.615-89.582l18.671-19.869  C367.963,72.718,412.041,130.018,413.969,186.494z"
   id="path1547" />
<path
   style="fill:#e35f46"
   d="m 289.62063,101.36981 c -1.24551,-0.38659 -2.59405,0.1464 -3.24135,1.28047 l -43.82656,76.89059 c -1.48122,2.60449 -2.41401,5.42105 -2.77966,8.47219 l -0.0637,0.74189 c -0.64654,7.78293 2.72561,15.20299 9.03964,19.85657 0.0191,0.0147 0.0944,0.0708 0.11338,0.0858 0.12118,0.0891 0.24852,0.1746 0.37358,0.26001 l 0.17272,0.11789 c 0.15229,0.10453 0.30548,0.20875 0.39383,0.26479 0.0817,0.0536 0.16565,0.10563 0.33184,0.20996 0.23763,0.14776 0.4781,0.29431 0.66916,0.40156 l 0.23711,0.13626 c 0.27299,0.15308 0.54608,0.30055 0.76612,0.40849 l 0.14409,0.0732 c 0.008,0.004 0.098,0.0498 0.10712,0.0536 0.26601,0.12977 0.52995,0.2572 0.78511,0.3709 l 0.25328,0.10907 c 0.24495,0.10703 0.49079,0.2083 0.80261,0.33151 l 0.32019,0.11974 c 0.2079,0.0767 0.41501,0.15157 0.62545,0.22405 0.015,0.005 0.0993,0.0322 0.11286,0.0363 l 0.9265,0.28573 c 0.205,0.0563 0.41466,0.11073 0.64421,0.16898 l 0.35646,0.0868 c 0.25886,0.0615 0.52276,0.11666 0.79054,0.1681 0.0153,0.004 0.11258,0.0225 0.12857,0.0246 0.0141,0.003 0.13473,0.0265 0.14848,0.0284 0.291,0.0528 0.58603,0.0997 0.95686,0.15267 l 0.12169,0.0155 c 0.31101,0.0437 0.62568,0.0751 0.88852,0.0983 0.10498,0.0115 0.20734,0.0219 0.26843,0.0264 0.27156,0.0208 0.54365,0.0349 0.8176,0.0482 0.0175,2.6e-4 0.11848,0.005 0.13411,0.006 l 0.19539,0.008 c 0.19018,0.006 0.37958,0.005 0.60445,0.004 l 0.15245,9.8e-4 c 0.14614,0.001 0.28969,0.002 0.4258,-5.4e-4 0.062,-0.001 0.12331,-0.005 0.18826,-0.009 2.62804,-0.089 5.19972,-0.63509 7.64006,-1.62106 v 0 c 4.70083,-1.89925 8.5122,-5.23383 11.0224,-9.64001 l 0.42115,-0.74073 c 1.37428,-2.63684 2.19764,-5.48679 2.44633,-8.47235 l 7.3333,-88.19837 c 0.10951,-1.29857 -0.70038,-2.49964 -1.94811,-2.88639 z m -38.11253,105.7581 z m 0.85169,0.50902 v 0 l -9.3e-4,3.8e-4 z m 7.99681,2.45728 z"
   id="path1549" />
<path
   style="fill:#7C7A75;"
   d="M256,361.51c-6.387,0-12.698-0.451-18.922-1.323v104.822h37.843V360.186  C268.698,361.058,262.384,361.51,256,361.51z"
   id="path1551" />
<path
   style="fill:#36A1CB;"
   d="M346.12,483.095l-13.081-30.798c-1.047-2.466-3.467-4.067-6.147-4.067H185.109  c-2.678,0-5.099,1.601-6.145,4.067l-13.082,30.798c-0.876,2.064-0.66,4.428,0.578,6.296c1.237,1.869,3.328,2.993,5.57,2.993h167.945  c2.241,0,4.333-1.124,5.569-2.993C346.779,487.523,346.996,485.159,346.12,483.095z"
   id="path1553" />
<path
   style="fill:#2393B5;"
   d="M193.729,489.392c-1.237-1.87-1.454-4.234-0.578-6.296l13.082-30.798  c1.046-2.466,3.467-4.067,6.145-4.067h-27.27c-2.678,0-5.099,1.601-6.145,4.067l-13.082,30.798c-0.876,2.064-0.66,4.428,0.578,6.296  c1.237,1.869,3.328,2.993,5.57,2.993h27.27C197.057,492.385,194.965,491.261,193.729,489.392z"
   id="path1555" />
<path
   style="fill:#7C7A75;"
   d="M409.105,178.146h-16.203c-1.921-30.671-13.953-59.451-34.373-82.375l11.635-11.636  c3.26-3.26,3.26-8.546,0-11.805c-3.26-3.26-8.546-3.26-11.805,0l-11.657,11.657c-23.018-20.348-51.792-32.239-82.354-34.077V33.391  c0-4.61-3.736-8.348-8.348-8.348c-4.61,0-8.348,3.738-8.348,8.348V49.91c-30.553,1.838-59.335,13.732-82.352,34.079l-11.658-11.658  c-3.26-3.26-8.546-3.26-11.805,0c-3.261,3.26-3.261,8.545,0,11.805l11.635,11.636c-20.411,22.915-32.452,51.701-34.374,82.374h-16.2  c-4.61,0-8.348,3.738-8.348,8.348s3.738,8.348,8.348,8.348h30.171c4.611,0,8.348-3.738,8.348-8.348c0-3.654-2.35-6.751-5.62-7.883  c1.834-27.5,12.685-52.293,29.624-71.543c1.15,0.561,2.4,0.848,3.652,0.848c2.136,0,4.273-0.815,5.902-2.445  c2.579-2.578,3.11-6.42,1.609-9.529c19.358-16.897,44.225-27.63,71.644-29.345c1.214,3.109,4.232,5.314,7.769,5.314  c3.535,0,6.549-2.2,7.768-5.303c27.094,1.775,51.967,12.755,71.417,29.834c-1.214,3.012-0.602,6.587,1.839,9.028  c1.631,1.629,3.767,2.445,5.902,2.445c1.076,0,2.152-0.208,3.162-0.621c17.15,19.347,28.249,44.154,30.112,71.318  c-3.267,1.133-5.615,4.228-5.615,7.88c0,4.61,3.738,8.348,8.348,8.348h30.171c4.611,0,8.348-3.738,8.348-8.348  C417.452,181.884,413.715,178.146,409.105,178.146z"
   id="path1557" />
<g
   id="g1563">
	<path
   style="fill:#F5F5F5;"
   d="M294.055,268.639h-75.687c-4.61,0-8.348-3.738-8.348-8.348s3.738-8.348,8.348-8.348h75.687   c4.61,0,8.348,3.738,8.348,8.348C302.403,264.902,298.665,268.639,294.055,268.639z"
   id="path1559" />
	<path
   style="fill:#F5F5F5;"
   d="M274.922,297.789h-37.843c-4.61,0-8.348-3.736-8.348-8.348c0-4.611,3.738-8.348,8.348-8.348h37.843   c4.611,0,8.348,3.736,8.348,8.348C283.27,294.052,279.533,297.789,274.922,297.789z"
   id="path1561" />
</g>
<g
   id="g1569">
	<path
   style="fill:#CCC3A8;"
   d="M256,375.096c-103.415,0-187.548-84.133-187.548-187.548C68.452,84.134,152.585,0,256,0   c103.413,0,187.548,84.134,187.548,187.548C443.548,290.963,359.413,375.096,256,375.096z M395.16,253.844   c9.611-20.093,14.996-42.577,14.996-66.296c0-85.002-69.155-154.157-154.157-154.157s-154.157,69.154-154.157,154.157   S170.998,341.704,256,341.704c51.104,0,96.479-24.996,124.544-63.403"
   id="path1565" />
	<path
   style="fill:#CCC3A8;"
   d="M498.05,480.671h-83.848H97.798H13.95c-7.704,0-13.95,6.246-13.95,13.95v3.428   C0,505.754,6.245,512,13.95,512h83.848h299.276h28.198h72.779c7.704,0,13.95-6.245,13.95-13.95v-3.428   C512,486.918,505.755,480.671,498.05,480.671z"
   id="path1567" />
</g>
<path
   style="fill:#C9B585;"
   d="M23.003,498.049v-3.427c0-7.706,6.245-13.951,13.951-13.951h-0.742H13.951  C6.245,480.67,0,486.916,0,494.621v3.427C0,505.754,6.245,512,13.951,512h22.261h0.742C29.249,512,23.003,505.754,23.003,498.049z"
   id="path1571" />
<path
   style="fill:#cc3c29"
   d="m 265.34935,189.87361 0.0637,-0.7419 c 0.0735,-0.61101 0.17909,-1.20913 0.29942,-1.80025 l -0.006,0.003 c 0.002,-0.007 0.01,-0.0351 0.0137,-0.0541 0.21988,-1.06815 0.53068,-2.10076 0.89876,-3.10907 4.54566,-15.59328 24.51505,-83.48237 24.51505,-83.48237 -1.24551,-0.38657 -2.59404,0.14641 -3.24135,1.28047 l -43.82656,76.8906 c -1.48121,2.6045 -2.41402,5.42104 -2.77967,8.4722 l -0.0637,0.74188 c -0.64655,7.78293 2.72561,15.203 9.03963,19.85658 0.0191,0.0147 0.0944,0.0708 0.11338,0.0858 0.12118,0.0891 0.24852,0.1746 0.37357,0.26001 l 0.17273,0.11789 c 0.15224,0.10462 0.30547,0.20874 0.39383,0.26479 0.0817,0.0536 0.16564,0.10562 0.33183,0.20996 0.23764,0.14776 0.4781,0.2943 0.66917,0.40156 l 0.23711,0.13626 c 0.27299,0.15308 0.54608,0.30055 0.76613,0.40849 l 0.14408,0.0732 c 0.008,0.004 0.0979,0.0498 0.10711,0.0536 0.26602,0.12978 0.52996,0.25721 0.78512,0.3709 l 0.25328,0.10908 c 0.24494,0.10702 0.49079,0.2083 0.8026,0.3315 l 0.3202,0.11975 c 0.2079,0.0767 0.415,0.15157 0.62544,0.22404 0.015,0.005 0.0993,0.0322 0.11287,0.0363 l 0.9265,0.28573 c 0.20499,0.0563 0.41467,0.11073 0.64421,0.16898 l 0.35645,0.0868 c 0.25892,0.0615 0.52277,0.11666 0.79054,0.1681 0.0154,0.004 0.11264,0.0224 0.12858,0.0247 0.0141,0.003 0.13472,0.0264 0.14848,0.0284 0.291,0.0528 0.58602,0.0997 0.95686,0.15267 l 0.12168,0.0155 c 0.31101,0.0437 0.62569,0.0751 0.88853,0.0983 0.10498,0.0115 0.20734,0.0219 0.26842,0.0264 0.27156,0.0208 0.54366,0.0349 0.81761,0.0482 0.0175,2.6e-4 0.11847,0.005 0.13411,0.006 l 0.19539,0.008 c 0.19017,0.006 0.37865,0.006 0.60445,0.004 l 0.15245,9.8e-4 c 0.14614,0.001 0.28969,0.002 0.4258,-5.4e-4 0.062,-0.001 0.1233,-0.005 0.18826,-0.009 2.62804,-0.089 5.19971,-0.6351 7.64006,-1.62106 v 0 c 0.79089,-0.31954 1.54444,-0.69411 2.28141,-1.09108 -6.14861,-4.66325 -9.42961,-11.98317 -8.79088,-19.66264 z"
   id="path1573" />
</svg>
