<?xml version="1.0" encoding="UTF-8" standalone="no"?>
<svg
   xmlns:dc="http://purl.org/dc/elements/1.1/"
   xmlns:cc="http://creativecommons.org/ns#"
   xmlns:rdf="http://www.w3.org/1999/02/22-rdf-syntax-ns#"
   xmlns:svg="http://www.w3.org/2000/svg"
   xmlns="http://www.w3.org/2000/svg"
   xmlns:sodipodi="http://sodipodi.sourceforge.net/DTD/sodipodi-0.dtd"
   xmlns:inkscape="http://www.inkscape.org/namespaces/inkscape"
   inkscape:version="1.0 (4035a4fb49, 2020-05-01)"
   sodipodi:docname="gauge_dead_center.svg"
   xml:space="preserve"
   viewBox="0 0 512 512"
   id="Layer_1"
   version="1.1"
   width="800px"
   height="800px"><metadata
   id="metadata1580"><rdf:RDF><cc:Work
       rdf:about=""><dc:format>image/svg+xml</dc:format><dc:type
         rdf:resource="http://purl.org/dc/dcmitype/StillImage" /><dc:title></dc:title></cc:Work></rdf:RDF></metadata><defs
   id="defs1578" /><sodipodi:namedview
   inkscape:current-layer="Layer_1"
   inkscape:window-maximized="1"
   inkscape:window-y="-9"
   inkscape:window-x="-9"
   inkscape:cy="400"
   inkscape:cx="385.85034"
   inkscape:zoom="0.91875"
   showgrid="false"
   id="namedview1576"
   inkscape:window-height="1001"
   inkscape:window-width="1920"
   inkscape:pageshadow="2"
   inkscape:pageopacity="0"
   guidetolerance="10"
   gridtolerance="10"
   objecttolerance="10"
   borderopacity="1"
   bordercolor="#666666"
   pagecolor="#ffffff"
   inkscape:document-rotation="0" />
<path
   id="path1537"
   d="M395.16,253.844c9.611-20.093,14.996-42.577,14.996-66.296c0-85.002-69.155-154.157-154.157-154.157  s-154.157,69.154-154.157,154.157S170.998,341.704,256,341.704c51.104,0,96.479-24.996,124.544-63.403"
   style="fill:#D6D2C4;" />
<path
   id="path1539"
   d="M368.47,292.852c4.309-4.599,8.348-9.452,12.074-14.551l14.618-24.457  c9.611-20.093,14.996-42.577,14.996-66.296c0-75.076-53.949-137.777-125.113-151.401c-51.608,19.002-88.515,68.664-88.515,126.785  c0,74.466,60.583,135.049,135.049,135.049C344.365,297.982,356.739,296.188,368.47,292.852z"
   style="fill:#E5E2DC;" />
<path
   id="path1541"
   d="M139.418,67.525l25.326,28.453c0,0-40.283,51.128-41.953,87.21H91.928  C91.928,183.187,98.792,106.802,139.418,67.525z"
   style="fill:#ea0028;fill-opacity:1" />
<path
   id="path1543"
   d="M253.637,23.745l-1.111,31.254c0,0-63.783,12.984-88.376,39.44l-24.733-16.206  C139.418,78.232,197.25,27.463,253.637,23.745z"
   style="fill:#ea6428;fill-opacity:1" />
<path
   id="path1545"
   d="M367.963,66.783L348.02,90.778c0,0-54.209-36.034-90.308-34.79l-4.075-32.242  C253.637,23.745,325.54,29.452,367.963,66.783z"
   style="fill:#FFB92E;" />
<path
   id="path1547"
   d="M413.969,186.494l-28.062-4.323c0,0-10.952-64.163-36.615-89.582l18.671-19.869  C367.963,72.718,412.041,130.018,413.969,186.494z"
   style="fill:#4baf78;fill-opacity:1" />
<path
   id="path1549"
   d="m 256.0513,96.908727 c -1.30382,-0.02831 -2.45321,0.855746 -2.76284,2.124304 l -20.93488,85.992219 c -0.70594,2.91187 -0.82625,5.87644 -0.33673,8.91017 l 0.14326,0.73071 c 1.52378,7.65964 6.81054,13.86277 14.16268,16.59569 0.0224,0.009 0.11025,0.042 0.13263,0.0512 0.14105,0.0522 0.28702,0.0993 0.43078,0.14696 l 0.19852,0.0657 c 0.17521,0.0585 0.35119,0.11646 0.45156,0.14598 0.0933,0.029 0.18835,0.0559 0.37686,0.11036 0.26916,0.0765 0.5407,0.15112 0.75393,0.20155 l 0.26548,0.0656 c 0.30461,0.0719 0.60777,0.13839 0.84904,0.18149 l 0.15868,0.0307 c 0.009,0.002 0.10793,0.0209 0.11774,0.022 0.29148,0.0514 0.58032,0.10116 0.85693,0.14012 l 0.27354,0.035 c 0.26496,0.0354 0.52919,0.065 0.86289,0.0974 l 0.34079,0.0268 c 0.22099,0.0164 0.44071,0.0313 0.66298,0.043 0.0158,6.8e-4 0.10433,0.004 0.11849,0.004 l 0.96937,0.0193 c 0.21258,-0.002 0.42912,-0.008 0.66583,-0.0151 l 0.36658,-0.0148 c 0.26578,-0.0122 0.53466,-0.0319 0.80625,-0.0563 0.0158,-3.8e-4 0.11442,-0.009 0.13037,-0.0118 0.0144,-0.001 0.13681,-0.0117 0.15056,-0.0136 0.29428,-0.0295 0.59081,-0.0657 0.96187,-0.11699 l 0.12125,-0.0186 c 0.31101,-0.0437 0.62214,-0.10027 0.88119,-0.15042 0.10409,-0.0179 0.20535,-0.0361 0.26531,-0.0486 0.26678,-0.0549 0.53221,-0.11631 0.79922,-0.17903 0.0169,-0.005 0.11526,-0.0279 0.13056,-0.0312 l 0.19003,-0.0462 c 0.18447,-0.0466 0.36625,-0.0998 0.58214,-0.16276 l 0.14681,-0.0411 c 0.14076,-0.0393 0.27902,-0.0779 0.40916,-0.11789 0.0593,-0.0181 0.11715,-0.0388 0.17848,-0.0605 2.50171,-0.80994 4.82324,-2.04372 6.89728,-3.66415 v 0 c 3.99522,-3.1214 6.73981,-7.37736 7.93826,-12.30475 l 0.20066,-0.82812 c 0.59423,-2.9135 0.60015,-5.88 0.0163,-8.81845 L 258.71954,99.145344 c -0.25267,-1.278451 -1.36225,-2.209757 -2.66824,-2.237604 z m -7.48523,112.166443 z m 0.959,0.25455 v 0 l -7.9e-4,6.2e-4 z m 8.36434,0.15787 z"
   style="fill:#e35f46" />
<path
   id="path1551"
   d="M256,361.51c-6.387,0-12.698-0.451-18.922-1.323v104.822h37.843V360.186  C268.698,361.058,262.384,361.51,256,361.51z"
   style="fill:#7C7A75;" />
<path
   id="path1553"
   d="M346.12,483.095l-13.081-30.798c-1.047-2.466-3.467-4.067-6.147-4.067H185.109  c-2.678,0-5.099,1.601-6.145,4.067l-13.082,30.798c-0.876,2.064-0.66,4.428,0.578,6.296c1.237,1.869,3.328,2.993,5.57,2.993h167.945  c2.241,0,4.333-1.124,5.569-2.993C346.779,487.523,346.996,485.159,346.12,483.095z"
   style="fill:#36A1CB;" />
<path
   id="path1555"
   d="M193.729,489.392c-1.237-1.87-1.454-4.234-0.578-6.296l13.082-30.798  c1.046-2.466,3.467-4.067,6.145-4.067h-27.27c-2.678,0-5.099,1.601-6.145,4.067l-13.082,30.798c-0.876,2.064-0.66,4.428,0.578,6.296  c1.237,1.869,3.328,2.993,5.57,2.993h27.27C197.057,492.385,194.965,491.261,193.729,489.392z"
   style="fill:#2393B5;" />
<path
   id="path1557"
   d="M409.105,178.146h-16.203c-1.921-30.671-13.953-59.451-34.373-82.375l11.635-11.636  c3.26-3.26,3.26-8.546,0-11.805c-3.26-3.26-8.546-3.26-11.805,0l-11.657,11.657c-23.018-20.348-51.792-32.239-82.354-34.077V33.391  c0-4.61-3.736-8.348-8.348-8.348c-4.61,0-8.348,3.738-8.348,8.348V49.91c-30.553,1.838-59.335,13.732-82.352,34.079l-11.658-11.658  c-3.26-3.26-8.546-3.26-11.805,0c-3.261,3.26-3.261,8.545,0,11.805l11.635,11.636c-20.411,22.915-32.452,51.701-34.374,82.374h-16.2  c-4.61,0-8.348,3.738-8.348,8.348s3.738,8.348,8.348,8.348h30.171c4.611,0,8.348-3.738,8.348-8.348c0-3.654-2.35-6.751-5.62-7.883  c1.834-27.5,12.685-52.293,29.624-71.543c1.15,0.561,2.4,0.848,3.652,0.848c2.136,0,4.273-0.815,5.902-2.445  c2.579-2.578,3.11-6.42,1.609-9.529c19.358-16.897,44.225-27.63,71.644-29.345c1.214,3.109,4.232,5.314,7.769,5.314  c3.535,0,6.549-2.2,7.768-5.303c27.094,1.775,51.967,12.755,71.417,29.834c-1.214,3.012-0.602,6.587,1.839,9.028  c1.631,1.629,3.767,2.445,5.902,2.445c1.076,0,2.152-0.208,3.162-0.621c17.15,19.347,28.249,44.154,30.112,71.318  c-3.267,1.133-5.615,4.228-5.615,7.88c0,4.61,3.738,8.348,8.348,8.348h30.171c4.611,0,8.348-3.738,8.348-8.348  C417.452,181.884,413.715,178.146,409.105,178.146z"
   style="fill:#7C7A75;" />
<g
   id="g1563">
	<path
   id="path1559"
   d="M294.055,268.639h-75.687c-4.61,0-8.348-3.738-8.348-8.348s3.738-8.348,8.348-8.348h75.687   c4.61,0,8.348,3.738,8.348,8.348C302.403,264.902,298.665,268.639,294.055,268.639z"
   style="fill:#F5F5F5;" />
	<path
   id="path1561"
   d="M274.922,297.789h-37.843c-4.61,0-8.348-3.736-8.348-8.348c0-4.611,3.738-8.348,8.348-8.348h37.843   c4.611,0,8.348,3.736,8.348,8.348C283.27,294.052,279.533,297.789,274.922,297.789z"
   style="fill:#F5F5F5;" />
</g>
<g
   id="g1569">
	<path
   id="path1565"
   d="M256,375.096c-103.415,0-187.548-84.133-187.548-187.548C68.452,84.134,152.585,0,256,0   c103.413,0,187.548,84.134,187.548,187.548C443.548,290.963,359.413,375.096,256,375.096z M395.16,253.844   c9.611-20.093,14.996-42.577,14.996-66.296c0-85.002-69.155-154.157-154.157-154.157s-154.157,69.154-154.157,154.157   S170.998,341.704,256,341.704c51.104,0,96.479-24.996,124.544-63.403"
   style="fill:#CCC3A8;" />
	<path
   id="path1567"
   d="M498.05,480.671h-83.848H97.798H13.95c-7.704,0-13.95,6.246-13.95,13.95v3.428   C0,505.754,6.245,512,13.95,512h83.848h299.276h28.198h72.779c7.704,0,13.95-6.245,13.95-13.95v-3.428   C512,486.918,505.755,480.671,498.05,480.671z"
   style="fill:#CCC3A8;" />
</g>
<path
   id="path1571"
   d="M23.003,498.049v-3.427c0-7.706,6.245-13.951,13.951-13.951h-0.742H13.951  C6.245,480.67,0,486.916,0,494.621v3.427C0,505.754,6.245,512,13.951,512h22.261h0.742C29.249,512,23.003,505.754,23.003,498.049z"
   style="fill:#C9B585;" />
<path
   id="path1573"
   d="m 257.32355,188.79499 -0.14326,-0.73072 c -0.0978,-0.6076 -0.16113,-1.21166 -0.20839,-1.81305 l -0.005,0.005 c -1e-5,-0.007 -7e-5,-0.0365 -0.002,-0.0558 -0.0831,-1.08738 -0.0689,-2.16565 0.007,-3.23636 0.0715,-16.24218 0.55452,-87.005668 0.55452,-87.005668 -1.30381,-0.02829 -2.4532,0.855753 -2.76284,2.124304 l -20.93487,85.992224 c -0.70594,2.91188 -0.82627,5.87643 -0.33674,8.91018 l 0.14326,0.7307 c 1.52376,7.65965 6.81054,13.86278 14.16266,16.59571 0.0224,0.009 0.11026,0.042 0.13264,0.0512 0.14105,0.0522 0.28702,0.0993 0.43077,0.14697 l 0.19853,0.0657 c 0.17518,0.0586 0.35118,0.11645 0.45156,0.14598 0.0933,0.029 0.18834,0.0559 0.37685,0.11036 0.26916,0.0765 0.5407,0.15111 0.75393,0.20155 l 0.26549,0.0656 c 0.30461,0.0719 0.60777,0.13839 0.84904,0.18149 l 0.15868,0.0307 c 0.009,0.002 0.10783,0.0209 0.11773,0.022 0.29149,0.0514 0.58033,0.10117 0.85694,0.14012 l 0.27354,0.0351 c 0.26495,0.0354 0.52919,0.0649 0.86288,0.0974 l 0.3408,0.0268 c 0.22099,0.0164 0.44071,0.0313 0.66297,0.043 0.0158,6.7e-4 0.10433,0.004 0.1185,0.004 l 0.96937,0.0193 c 0.21257,-0.002 0.42913,-0.008 0.66583,-0.0151 l 0.36657,-0.0148 c 0.26584,-0.0122 0.53467,-0.0319 0.80625,-0.0563 0.0159,-4e-4 0.11445,-0.01 0.13041,-0.0117 0.0144,-10e-4 0.13677,-0.0118 0.15055,-0.0136 0.29428,-0.0294 0.5908,-0.0657 0.96188,-0.11699 l 0.12123,-0.0186 c 0.31101,-0.0437 0.62216,-0.10027 0.88121,-0.15042 0.10408,-0.0179 0.20534,-0.0361 0.2653,-0.0486 0.26677,-0.0548 0.53222,-0.1163 0.79922,-0.17903 0.0169,-0.005 0.11526,-0.0278 0.13057,-0.0312 l 0.19003,-0.0462 c 0.18445,-0.0466 0.36563,-0.0986 0.58213,-0.16277 l 0.14682,-0.0411 c 0.14075,-0.0393 0.27902,-0.0779 0.40915,-0.11789 0.0593,-0.0181 0.11715,-0.0388 0.17849,-0.0605 2.5017,-0.80994 4.82323,-2.04373 6.89727,-3.66415 v 0 c 0.67218,-0.52516 1.29329,-1.09293 1.89229,-1.67766 -7.19579,-2.78781 -12.36733,-8.91981 -13.87009,-16.47784 z"
   style="fill:#cc3c29" />
</svg>
