<?xml version="1.0" encoding="UTF-8" standalone="no"?>
<svg
   xmlns:dc="http://purl.org/dc/elements/1.1/"
   xmlns:cc="http://creativecommons.org/ns#"
   xmlns:rdf="http://www.w3.org/1999/02/22-rdf-syntax-ns#"
   xmlns:svg="http://www.w3.org/2000/svg"
   xmlns="http://www.w3.org/2000/svg"
   xmlns:sodipodi="http://sodipodi.sourceforge.net/DTD/sodipodi-0.dtd"
   xmlns:inkscape="http://www.inkscape.org/namespaces/inkscape"
   height="800px"
   width="800px"
   version="1.1"
   id="Layer_1"
   viewBox="0 0 512 512"
   xml:space="preserve"
   sodipodi:docname="gauge_kinda_bad.svg"
   inkscape:version="1.0 (4035a4fb49, 2020-05-01)"><metadata
   id="metadata1580"><rdf:RDF><cc:Work
       rdf:about=""><dc:format>image/svg+xml</dc:format><dc:type
         rdf:resource="http://purl.org/dc/dcmitype/StillImage" /><dc:title></dc:title></cc:Work></rdf:RDF></metadata><defs
   id="defs1578" /><sodipodi:namedview
   inkscape:document-rotation="0"
   pagecolor="#ffffff"
   bordercolor="#666666"
   borderopacity="1"
   objecttolerance="10"
   gridtolerance="10"
   guidetolerance="10"
   inkscape:pageopacity="0"
   inkscape:pageshadow="2"
   inkscape:window-width="1920"
   inkscape:window-height="1001"
   id="namedview1576"
   showgrid="false"
   inkscape:zoom="0.91875"
   inkscape:cx="385.85034"
   inkscape:cy="400"
   inkscape:window-x="-9"
   inkscape:window-y="-9"
   inkscape:window-maximized="1"
   inkscape:current-layer="Layer_1" />
<path
   style="fill:#D6D2C4;"
   d="M395.16,253.844c9.611-20.093,14.996-42.577,14.996-66.296c0-85.002-69.155-154.157-154.157-154.157  s-154.157,69.154-154.157,154.157S170.998,341.704,256,341.704c51.104,0,96.479-24.996,124.544-63.403"
   id="path1537" />
<path
   style="fill:#E5E2DC;"
   d="M368.47,292.852c4.309-4.599,8.348-9.452,12.074-14.551l14.618-24.457  c9.611-20.093,14.996-42.577,14.996-66.296c0-75.076-53.949-137.777-125.113-151.401c-51.608,19.002-88.515,68.664-88.515,126.785  c0,74.466,60.583,135.049,135.049,135.049C344.365,297.982,356.739,296.188,368.47,292.852z"
   id="path1539" />
<path
   style="fill:#ea0028;fill-opacity:1"
   d="M139.418,67.525l25.326,28.453c0,0-40.283,51.128-41.953,87.21H91.928  C91.928,183.187,98.792,106.802,139.418,67.525z"
   id="path1541" />
<path
   style="fill:#ea6428;fill-opacity:1"
   d="M253.637,23.745l-1.111,31.254c0,0-63.783,12.984-88.376,39.44l-24.733-16.206  C139.418,78.232,197.25,27.463,253.637,23.745z"
   id="path1543" />
<path
   style="fill:#FFB92E;"
   d="M367.963,66.783L348.02,90.778c0,0-54.209-36.034-90.308-34.79l-4.075-32.242  C253.637,23.745,325.54,29.452,367.963,66.783z"
   id="path1545" />
<path
   style="fill:#4baf78;fill-opacity:1"
   d="M413.969,186.494l-28.062-4.323c0,0-10.952-64.163-36.615-89.582l18.671-19.869  C367.963,72.718,412.041,130.018,413.969,186.494z"
   id="path1547" />
<path
   style="fill:#e35f46"
   d="m 223.99577,98.969174 c -1.20261,0.504453 -1.89305,1.779576 -1.65995,3.064396 l 15.85123,87.07278 c 0.53945,2.94726 1.63534,5.70446 3.31647,8.2768 l 0.42808,0.60927 c 4.5075,6.37766 11.86023,9.89418 19.68833,9.40045 0.0241,-10e-4 0.11782,-0.006 0.142,-0.007 0.1501,-0.01 0.30261,-0.026 0.45331,-0.0409 l 0.20809,-0.0207 c 0.18385,-0.0178 0.36819,-0.0365 0.4719,-0.0503 0.097,-0.0115 0.19479,-0.0256 0.38916,-0.0525 0.27701,-0.0396 0.55542,-0.0819 0.77072,-0.12252 l 0.26923,-0.048 c 0.30752,-0.0582 0.61151,-0.12078 0.84945,-0.17953 l 0.15743,-0.0365 c 0.009,-0.002 0.10709,-0.0248 0.11651,-0.0278 0.28719,-0.0716 0.57129,-0.14362 0.83984,-0.22053 l 0.26414,-0.0793 c 0.25644,-0.0755 0.50986,-0.1559 0.82792,-0.26195 l 0.32225,-0.11409 c 0.20856,-0.0749 0.41534,-0.15066 0.62314,-0.2304 0.0147,-0.006 0.0968,-0.0392 0.10979,-0.0447 l 0.8934,-0.37666 c 0.19323,-0.0886 0.38882,-0.18171 0.60211,-0.28464 l 0.32886,-0.16264 c 0.23783,-0.11928 0.47545,-0.24666 0.71364,-0.37938 0.0143,-0.007 0.10071,-0.0551 0.11431,-0.0638 0.0127,-0.007 0.12024,-0.0663 0.13199,-0.0737 0.25686,-0.1466 0.51301,-0.30032 0.83113,-0.49811 l 0.10319,-0.0663 c 0.26633,-0.16644 0.52757,-0.34465 0.74383,-0.49583 0.0878,-0.0587 0.17291,-0.1165 0.2226,-0.15232 0.2214,-0.15862 0.43889,-0.32272 0.6573,-0.48862 0.0136,-0.0111 0.094,-0.0723 0.10659,-0.0816 l 0.15482,-0.11946 c 0.14954,-0.11765 0.29399,-0.24016 0.46561,-0.38547 l 0.11741,-0.0972 c 0.11259,-0.0932 0.2232,-0.18468 0.32583,-0.27412 0.0469,-0.0406 0.0913,-0.0831 0.13843,-0.1279 1.95599,-1.75745 3.57499,-3.82883 4.81063,-6.15274 v 0 c 2.38023,-4.47655 3.15648,-9.48089 2.24717,-14.46974 l -0.15351,-0.83814 c -0.64217,-2.90331 -1.84335,-5.61574 -3.57192,-8.06267 L 227.34304,99.927154 c -0.75082,-1.065154 -2.14326,-1.464639 -3.34768,-0.958882 z m 38.7841,105.513666 z m 0.97963,-0.15752 v 0 l -4.7e-4,8.9e-4 z m 7.70542,-3.25787 z"
   id="path1549" />
<path
   style="fill:#7C7A75;"
   d="M256,361.51c-6.387,0-12.698-0.451-18.922-1.323v104.822h37.843V360.186  C268.698,361.058,262.384,361.51,256,361.51z"
   id="path1551" />
<path
   style="fill:#36A1CB;"
   d="M346.12,483.095l-13.081-30.798c-1.047-2.466-3.467-4.067-6.147-4.067H185.109  c-2.678,0-5.099,1.601-6.145,4.067l-13.082,30.798c-0.876,2.064-0.66,4.428,0.578,6.296c1.237,1.869,3.328,2.993,5.57,2.993h167.945  c2.241,0,4.333-1.124,5.569-2.993C346.779,487.523,346.996,485.159,346.12,483.095z"
   id="path1553" />
<path
   style="fill:#2393B5;"
   d="M193.729,489.392c-1.237-1.87-1.454-4.234-0.578-6.296l13.082-30.798  c1.046-2.466,3.467-4.067,6.145-4.067h-27.27c-2.678,0-5.099,1.601-6.145,4.067l-13.082,30.798c-0.876,2.064-0.66,4.428,0.578,6.296  c1.237,1.869,3.328,2.993,5.57,2.993h27.27C197.057,492.385,194.965,491.261,193.729,489.392z"
   id="path1555" />
<path
   style="fill:#7C7A75;"
   d="M409.105,178.146h-16.203c-1.921-30.671-13.953-59.451-34.373-82.375l11.635-11.636  c3.26-3.26,3.26-8.546,0-11.805c-3.26-3.26-8.546-3.26-11.805,0l-11.657,11.657c-23.018-20.348-51.792-32.239-82.354-34.077V33.391  c0-4.61-3.736-8.348-8.348-8.348c-4.61,0-8.348,3.738-8.348,8.348V49.91c-30.553,1.838-59.335,13.732-82.352,34.079l-11.658-11.658  c-3.26-3.26-8.546-3.26-11.805,0c-3.261,3.26-3.261,8.545,0,11.805l11.635,11.636c-20.411,22.915-32.452,51.701-34.374,82.374h-16.2  c-4.61,0-8.348,3.738-8.348,8.348s3.738,8.348,8.348,8.348h30.171c4.611,0,8.348-3.738,8.348-8.348c0-3.654-2.35-6.751-5.62-7.883  c1.834-27.5,12.685-52.293,29.624-71.543c1.15,0.561,2.4,0.848,3.652,0.848c2.136,0,4.273-0.815,5.902-2.445  c2.579-2.578,3.11-6.42,1.609-9.529c19.358-16.897,44.225-27.63,71.644-29.345c1.214,3.109,4.232,5.314,7.769,5.314  c3.535,0,6.549-2.2,7.768-5.303c27.094,1.775,51.967,12.755,71.417,29.834c-1.214,3.012-0.602,6.587,1.839,9.028  c1.631,1.629,3.767,2.445,5.902,2.445c1.076,0,2.152-0.208,3.162-0.621c17.15,19.347,28.249,44.154,30.112,71.318  c-3.267,1.133-5.615,4.228-5.615,7.88c0,4.61,3.738,8.348,8.348,8.348h30.171c4.611,0,8.348-3.738,8.348-8.348  C417.452,181.884,413.715,178.146,409.105,178.146z"
   id="path1557" />
<g
   id="g1563">
	<path
   style="fill:#F5F5F5;"
   d="M294.055,268.639h-75.687c-4.61,0-8.348-3.738-8.348-8.348s3.738-8.348,8.348-8.348h75.687   c4.61,0,8.348,3.738,8.348,8.348C302.403,264.902,298.665,268.639,294.055,268.639z"
   id="path1559" />
	<path
   style="fill:#F5F5F5;"
   d="M274.922,297.789h-37.843c-4.61,0-8.348-3.736-8.348-8.348c0-4.611,3.738-8.348,8.348-8.348h37.843   c4.611,0,8.348,3.736,8.348,8.348C283.27,294.052,279.533,297.789,274.922,297.789z"
   id="path1561" />
</g>
<g
   id="g1569">
	<path
   style="fill:#CCC3A8;"
   d="M256,375.096c-103.415,0-187.548-84.133-187.548-187.548C68.452,84.134,152.585,0,256,0   c103.413,0,187.548,84.134,187.548,187.548C443.548,290.963,359.413,375.096,256,375.096z M395.16,253.844   c9.611-20.093,14.996-42.577,14.996-66.296c0-85.002-69.155-154.157-154.157-154.157s-154.157,69.154-154.157,154.157   S170.998,341.704,256,341.704c51.104,0,96.479-24.996,124.544-63.403"
   id="path1565" />
	<path
   style="fill:#CCC3A8;"
   d="M498.05,480.671h-83.848H97.798H13.95c-7.704,0-13.95,6.246-13.95,13.95v3.428   C0,505.754,6.245,512,13.95,512h83.848h299.276h28.198h72.779c7.704,0,13.95-6.245,13.95-13.95v-3.428   C512,486.918,505.755,480.671,498.05,480.671z"
   id="path1567" />
</g>
<path
   style="fill:#C9B585;"
   d="M23.003,498.049v-3.427c0-7.706,6.245-13.951,13.951-13.951h-0.742H13.951  C6.245,480.67,0,486.916,0,494.621v3.427C0,505.754,6.245,512,13.951,512h22.261h0.742C29.249,512,23.003,505.754,23.003,498.049z"
   id="path1571" />
<path
   style="fill:#cc3c29"
   d="m 262.85464,182.5524 -0.42808,-0.60928 c -0.33645,-0.5153 -0.64003,-1.04136 -0.92781,-1.57153 l -0.003,0.006 c -0.003,-0.007 -0.0149,-0.0333 -0.0243,-0.0502 -0.51816,-0.95958 -0.94382,-1.95039 -1.30998,-2.95939 -6.54099,-14.86704 -34.88182,-79.70918 -34.88182,-79.70918 -1.2026,0.504468 -1.89304,1.779573 -1.65995,3.0644 l 15.85124,87.07278 c 0.53946,2.94727 1.63533,5.70446 3.31647,8.27682 l 0.42808,0.60926 c 4.50748,6.37767 11.86023,9.89419 19.68832,9.40046 0.0241,-0.001 0.11782,-0.006 0.142,-0.007 0.1501,-0.01 0.30261,-0.026 0.4533,-0.041 l 0.2081,-0.0207 c 0.18387,-0.0177 0.36818,-0.0365 0.4719,-0.0503 0.097,-0.0115 0.19478,-0.0256 0.38915,-0.0525 0.27702,-0.0396 0.55542,-0.0819 0.77073,-0.12252 l 0.26923,-0.048 c 0.30752,-0.0582 0.61151,-0.12077 0.84946,-0.17953 l 0.15742,-0.0365 c 0.009,-0.002 0.10701,-0.0248 0.11651,-0.0278 0.2872,-0.0716 0.5713,-0.14362 0.83984,-0.22054 l 0.26414,-0.0792 c 0.25643,-0.0755 0.50986,-0.15591 0.82792,-0.26196 l 0.32226,-0.11409 c 0.20856,-0.0749 0.41533,-0.15065 0.62312,-0.2304 0.0147,-0.006 0.0968,-0.0392 0.1098,-0.0447 l 0.8934,-0.37666 c 0.19322,-0.0886 0.38883,-0.18172 0.60211,-0.28465 l 0.32885,-0.16263 c 0.23788,-0.11932 0.47546,-0.24666 0.71365,-0.37937 0.0144,-0.007 0.10068,-0.0553 0.11437,-0.0637 0.0127,-0.007 0.12017,-0.0664 0.132,-0.0737 0.25686,-0.1466 0.513,-0.30031 0.83113,-0.4981 l 0.10317,-0.0663 c 0.26634,-0.16644 0.52758,-0.34466 0.74384,-0.49584 0.0878,-0.0587 0.17291,-0.1165 0.2226,-0.15231 0.22139,-0.15862 0.4389,-0.32273 0.6573,-0.48863 0.0136,-0.011 0.094,-0.0723 0.10659,-0.0816 l 0.15482,-0.11946 c 0.14954,-0.11764 0.29392,-0.2388 0.46561,-0.38547 l 0.11741,-0.0972 c 0.1126,-0.0932 0.22321,-0.18468 0.32584,-0.27412 0.0469,-0.0406 0.0912,-0.0831 0.13843,-0.1279 1.95599,-1.75745 3.57497,-3.82883 4.81063,-6.15274 v 0 c 0.40046,-0.75316 0.73694,-1.52447 1.04633,-2.30228 -7.70759,0.37999 -14.92614,-3.1184 -19.37311,-9.41179 z"
   id="path1573" />
</svg>
