<?xml version="1.0" encoding="UTF-8" standalone="no"?>
<svg
   xmlns:dc="http://purl.org/dc/elements/1.1/"
   xmlns:cc="http://creativecommons.org/ns#"
   xmlns:rdf="http://www.w3.org/1999/02/22-rdf-syntax-ns#"
   xmlns:svg="http://www.w3.org/2000/svg"
   xmlns="http://www.w3.org/2000/svg"
   xmlns:sodipodi="http://sodipodi.sourceforge.net/DTD/sodipodi-0.dtd"
   xmlns:inkscape="http://www.inkscape.org/namespaces/inkscape"
   inkscape:version="1.0 (4035a4fb49, 2020-05-01)"
   sodipodi:docname="gauge_good.svg"
   xml:space="preserve"
   viewBox="0 0 512 512"
   id="Layer_1"
   version="1.1"
   width="800px"
   height="800px"><metadata
   id="metadata1580"><rdf:RDF><cc:Work
       rdf:about=""><dc:format>image/svg+xml</dc:format><dc:type
         rdf:resource="http://purl.org/dc/dcmitype/StillImage" /><dc:title></dc:title></cc:Work></rdf:RDF></metadata><defs
   id="defs1578" /><sodipodi:namedview
   inkscape:current-layer="Layer_1"
   inkscape:window-maximized="1"
   inkscape:window-y="-9"
   inkscape:window-x="-9"
   inkscape:cy="400"
   inkscape:cx="385.85034"
   inkscape:zoom="0.91875"
   showgrid="false"
   id="namedview1576"
   inkscape:window-height="1001"
   inkscape:window-width="1920"
   inkscape:pageshadow="2"
   inkscape:pageopacity="0"
   guidetolerance="10"
   gridtolerance="10"
   objecttolerance="10"
   borderopacity="1"
   bordercolor="#666666"
   pagecolor="#ffffff" />
<path
   id="path1537"
   d="M395.16,253.844c9.611-20.093,14.996-42.577,14.996-66.296c0-85.002-69.155-154.157-154.157-154.157  s-154.157,69.154-154.157,154.157S170.998,341.704,256,341.704c51.104,0,96.479-24.996,124.544-63.403"
   style="fill:#D6D2C4;" />
<path
   id="path1539"
   d="M368.47,292.852c4.309-4.599,8.348-9.452,12.074-14.551l14.618-24.457  c9.611-20.093,14.996-42.577,14.996-66.296c0-75.076-53.949-137.777-125.113-151.401c-51.608,19.002-88.515,68.664-88.515,126.785  c0,74.466,60.583,135.049,135.049,135.049C344.365,297.982,356.739,296.188,368.47,292.852z"
   style="fill:#E5E2DC;" />
<path
   id="path1541"
   d="M139.418,67.525l25.326,28.453c0,0-40.283,51.128-41.953,87.21H91.928  C91.928,183.187,98.792,106.802,139.418,67.525z"
   style="fill:#ea0028;fill-opacity:1" />
<path
   id="path1543"
   d="M253.637,23.745l-1.111,31.254c0,0-63.783,12.984-88.376,39.44l-24.733-16.206  C139.418,78.232,197.25,27.463,253.637,23.745z"
   style="fill:#ea6428;fill-opacity:1" />
<path
   id="path1545"
   d="M367.963,66.783L348.02,90.778c0,0-54.209-36.034-90.308-34.79l-4.075-32.242  C253.637,23.745,325.54,29.452,367.963,66.783z"
   style="fill:#FFB92E;" />
<path
   id="path1547"
   d="M413.969,186.494l-28.062-4.323c0,0-10.952-64.163-36.615-89.582l18.671-19.869  C367.963,72.718,412.041,130.018,413.969,186.494z"
   style="fill:#4baf78;fill-opacity:1" />
<path
   id="path1549"
   d="m 335.30886,166.64111 c -0.2434,-1.28121 -1.3471,-2.22168 -2.65231,-2.2608 l -88.46569,-2.59861 c -2.99502,-0.0851 -5.91981,0.41358 -8.78547,1.52316 l -0.68497,0.29203 c -7.17545,3.083 -12.14385,9.54394 -13.28846,17.30362 -0.004,0.0238 -0.0182,0.11658 -0.0225,0.14038 -0.0218,0.14883 -0.0375,0.3014 -0.0542,0.45192 l -0.023,0.20785 c -0.0208,0.18354 -0.0409,0.36772 -0.0489,0.47204 -0.009,0.0973 -0.0155,0.19585 -0.0296,0.39157 -0.0189,0.27918 -0.0354,0.5603 -0.0404,0.77935 l -0.009,0.27333 c -0.007,0.3129 -0.009,0.62326 -0.001,0.86822 l 0.003,0.16159 c 1e-4,0.009 0.002,0.10987 0.003,0.11973 0.0103,0.2958 0.0217,0.58866 0.0411,0.86734 l 0.0226,0.27484 c 0.0205,0.26652 0.0465,0.53113 0.0841,0.86429 l 0.0446,0.33893 c 0.0299,0.21956 0.061,0.43759 0.0958,0.65742 0.003,0.0154 0.0182,0.10275 0.0209,0.11671 l 0.18268,0.9522 c 0.0465,0.20745 0.0969,0.41811 0.15324,0.64813 l 0.0907,0.35549 c 0.0672,0.25745 0.14241,0.51634 0.22271,0.77692 0.004,0.0152 0.033,0.10996 0.0386,0.12509 0.004,0.0138 0.0399,0.13138 0.0446,0.14445 0.09,0.28173 0.18707,0.56426 0.31442,0.91654 l 0.0434,0.11474 c 0.10745,0.29511 0.22745,0.58769 0.33034,0.83067 0.0391,0.0981 0.078,0.19335 0.10274,0.24939 0.10913,0.24953 0.22442,0.49639 0.34125,0.74454 0.008,0.0156 0.0512,0.10696 0.0575,0.12132 l 0.0843,0.17647 c 0.0838,0.17083 0.17363,0.33758 0.28038,0.5355 l 0.0707,0.13507 c 0.0674,0.12967 0.13459,0.25653 0.20038,0.3757 0.0303,0.0541 0.0619,0.10674 0.0965,0.16191 1.31233,2.27866 3.00187,4.29292 5.0181,5.98473 v 0 c 3.88384,3.25894 8.61743,5.05869 13.68632,5.20649 l 0.85175,0.0241 c 2.97338,-0.0245 5.87627,-0.63549 8.62912,-1.81754 l 81.31731,-34.93171 c 1.19799,-0.51295 1.87825,-1.79191 1.63395,-3.07516 z m -111.27161,15.99905 v 0 0 z m -0.0496,0.99097 v 0 l -7.7e-4,-6.4e-4 z m 1.58463,8.21439 v 0 0 z"
   style="fill:#e35f46" />
<path
   id="path1551"
   d="M256,361.51c-6.387,0-12.698-0.451-18.922-1.323v104.822h37.843V360.186  C268.698,361.058,262.384,361.51,256,361.51z"
   style="fill:#7C7A75;" />
<path
   id="path1553"
   d="M346.12,483.095l-13.081-30.798c-1.047-2.466-3.467-4.067-6.147-4.067H185.109  c-2.678,0-5.099,1.601-6.145,4.067l-13.082,30.798c-0.876,2.064-0.66,4.428,0.578,6.296c1.237,1.869,3.328,2.993,5.57,2.993h167.945  c2.241,0,4.333-1.124,5.569-2.993C346.779,487.523,346.996,485.159,346.12,483.095z"
   style="fill:#36A1CB;" />
<path
   id="path1555"
   d="M193.729,489.392c-1.237-1.87-1.454-4.234-0.578-6.296l13.082-30.798  c1.046-2.466,3.467-4.067,6.145-4.067h-27.27c-2.678,0-5.099,1.601-6.145,4.067l-13.082,30.798c-0.876,2.064-0.66,4.428,0.578,6.296  c1.237,1.869,3.328,2.993,5.57,2.993h27.27C197.057,492.385,194.965,491.261,193.729,489.392z"
   style="fill:#2393B5;" />
<path
   id="path1557"
   d="M409.105,178.146h-16.203c-1.921-30.671-13.953-59.451-34.373-82.375l11.635-11.636  c3.26-3.26,3.26-8.546,0-11.805c-3.26-3.26-8.546-3.26-11.805,0l-11.657,11.657c-23.018-20.348-51.792-32.239-82.354-34.077V33.391  c0-4.61-3.736-8.348-8.348-8.348c-4.61,0-8.348,3.738-8.348,8.348V49.91c-30.553,1.838-59.335,13.732-82.352,34.079l-11.658-11.658  c-3.26-3.26-8.546-3.26-11.805,0c-3.261,3.26-3.261,8.545,0,11.805l11.635,11.636c-20.411,22.915-32.452,51.701-34.374,82.374h-16.2  c-4.61,0-8.348,3.738-8.348,8.348s3.738,8.348,8.348,8.348h30.171c4.611,0,8.348-3.738,8.348-8.348c0-3.654-2.35-6.751-5.62-7.883  c1.834-27.5,12.685-52.293,29.624-71.543c1.15,0.561,2.4,0.848,3.652,0.848c2.136,0,4.273-0.815,5.902-2.445  c2.579-2.578,3.11-6.42,1.609-9.529c19.358-16.897,44.225-27.63,71.644-29.345c1.214,3.109,4.232,5.314,7.769,5.314  c3.535,0,6.549-2.2,7.768-5.303c27.094,1.775,51.967,12.755,71.417,29.834c-1.214,3.012-0.602,6.587,1.839,9.028  c1.631,1.629,3.767,2.445,5.902,2.445c1.076,0,2.152-0.208,3.162-0.621c17.15,19.347,28.249,44.154,30.112,71.318  c-3.267,1.133-5.615,4.228-5.615,7.88c0,4.61,3.738,8.348,8.348,8.348h30.171c4.611,0,8.348-3.738,8.348-8.348  C417.452,181.884,413.715,178.146,409.105,178.146z"
   style="fill:#7C7A75;" />
<g
   id="g1563">
	<path
   id="path1559"
   d="M294.055,268.639h-75.687c-4.61,0-8.348-3.738-8.348-8.348s3.738-8.348,8.348-8.348h75.687   c4.61,0,8.348,3.738,8.348,8.348C302.403,264.902,298.665,268.639,294.055,268.639z"
   style="fill:#F5F5F5;" />
	<path
   id="path1561"
   d="M274.922,297.789h-37.843c-4.61,0-8.348-3.736-8.348-8.348c0-4.611,3.738-8.348,8.348-8.348h37.843   c4.611,0,8.348,3.736,8.348,8.348C283.27,294.052,279.533,297.789,274.922,297.789z"
   style="fill:#F5F5F5;" />
</g>
<g
   id="g1569">
	<path
   id="path1565"
   d="M256,375.096c-103.415,0-187.548-84.133-187.548-187.548C68.452,84.134,152.585,0,256,0   c103.413,0,187.548,84.134,187.548,187.548C443.548,290.963,359.413,375.096,256,375.096z M395.16,253.844   c9.611-20.093,14.996-42.577,14.996-66.296c0-85.002-69.155-154.157-154.157-154.157s-154.157,69.154-154.157,154.157   S170.998,341.704,256,341.704c51.104,0,96.479-24.996,124.544-63.403"
   style="fill:#CCC3A8;" />
	<path
   id="path1567"
   d="M498.05,480.671h-83.848H97.798H13.95c-7.704,0-13.95,6.246-13.95,13.95v3.428   C0,505.754,6.245,512,13.95,512h83.848h299.276h28.198h72.779c7.704,0,13.95-6.245,13.95-13.95v-3.428   C512,486.918,505.755,480.671,498.05,480.671z"
   style="fill:#CCC3A8;" />
</g>
<path
   id="path1571"
   d="M23.003,498.049v-3.427c0-7.706,6.245-13.951,13.951-13.951h-0.742H13.951  C6.245,480.67,0,486.916,0,494.621v3.427C0,505.754,6.245,512,13.951,512h22.261h0.742C29.249,512,23.003,505.754,23.003,498.049z"
   style="fill:#C9B585;" />
<path
   id="path1573"
   d="m 244.33911,186.07502 0.68497,-0.29204 c 0.57398,-0.22199 1.15168,-0.40952 1.7301,-0.58079 l -0.006,-0.004 c 0.007,-0.002 0.0355,-0.008 0.0542,-0.0133 1.04634,-0.30732 2.104,-0.51768 3.16709,-0.66606 15.9021,-3.30702 85.21967,-17.54709 85.21967,-17.54709 -0.24341,-1.2812 -1.3471,-2.22167 -2.65231,-2.2608 l -88.46569,-2.5986 c -2.99502,-0.0851 -5.91981,0.41357 -8.78548,1.52315 l -0.68496,0.29204 c -7.17545,3.08299 -12.14385,9.54394 -13.28847,17.30362 -0.004,0.0238 -0.0182,0.11658 -0.0225,0.14038 -0.0218,0.14883 -0.0375,0.3014 -0.0542,0.45191 l -0.023,0.20786 c -0.0209,0.18353 -0.0409,0.36771 -0.0489,0.47204 -0.009,0.0973 -0.0155,0.19584 -0.0296,0.39156 -0.0189,0.27919 -0.0354,0.5603 -0.0404,0.77936 l -0.009,0.27333 c -0.007,0.3129 -0.009,0.62326 -0.001,0.86822 l 0.003,0.16159 c 1e-4,0.009 0.002,0.10986 0.003,0.11972 0.0103,0.29581 0.0217,0.58867 0.0411,0.86734 l 0.0226,0.27485 c 0.0205,0.26651 0.0465,0.53113 0.0841,0.86428 l 0.0446,0.33894 c 0.0299,0.21956 0.061,0.43758 0.0958,0.65741 0.003,0.0154 0.0182,0.10275 0.0209,0.11672 l 0.18268,0.95219 c 0.0465,0.20745 0.0969,0.41812 0.15324,0.64814 l 0.0907,0.35548 c 0.0673,0.25746 0.14242,0.51635 0.22271,0.77692 0.004,0.0153 0.0331,0.10997 0.0386,0.1251 0.004,0.0138 0.0399,0.13137 0.0446,0.14445 0.09,0.28173 0.18707,0.56425 0.31442,0.91653 l 0.0434,0.11474 c 0.10745,0.29511 0.22745,0.5877 0.33034,0.83068 0.0391,0.0981 0.078,0.19335 0.10273,0.24938 0.10914,0.24953 0.22443,0.4964 0.34126,0.74455 0.008,0.0156 0.0512,0.10695 0.0575,0.12132 l 0.0843,0.17646 c 0.0838,0.17083 0.17286,0.33694 0.28038,0.53551 l 0.0707,0.13506 c 0.0674,0.12968 0.13459,0.25653 0.20038,0.37571 0.0303,0.0541 0.0619,0.10673 0.0965,0.16191 1.31234,2.27865 3.00187,4.29291 5.0181,5.98473 v 0 c 0.65344,0.5483 1.33793,1.0378 2.03442,1.50213 1.23081,-7.61816 6.15358,-13.95161 13.23401,-16.99293 z"
   style="fill:#cc3c29" />
</svg>
