<?xml version="1.0" encoding="UTF-8" standalone="no"?>
<svg
   xmlns:dc="http://purl.org/dc/elements/1.1/"
   xmlns:cc="http://creativecommons.org/ns#"
   xmlns:rdf="http://www.w3.org/1999/02/22-rdf-syntax-ns#"
   xmlns:svg="http://www.w3.org/2000/svg"
   xmlns="http://www.w3.org/2000/svg"
   xmlns:sodipodi="http://sodipodi.sourceforge.net/DTD/sodipodi-0.dtd"
   xmlns:inkscape="http://www.inkscape.org/namespaces/inkscape"
   height="800px"
   width="800px"
   version="1.1"
   id="Layer_1"
   viewBox="0 0 512 512"
   xml:space="preserve"
   sodipodi:docname="gauge_real_bad.svg"
   inkscape:version="1.0 (4035a4fb49, 2020-05-01)"><metadata
   id="metadata1580"><rdf:RDF><cc:Work
       rdf:about=""><dc:format>image/svg+xml</dc:format><dc:type
         rdf:resource="http://purl.org/dc/dcmitype/StillImage" /><dc:title></dc:title></cc:Work></rdf:RDF></metadata><defs
   id="defs1578" /><sodipodi:namedview
   inkscape:document-rotation="0"
   pagecolor="#ffffff"
   bordercolor="#666666"
   borderopacity="1"
   objecttolerance="10"
   gridtolerance="10"
   guidetolerance="10"
   inkscape:pageopacity="0"
   inkscape:pageshadow="2"
   inkscape:window-width="1920"
   inkscape:window-height="1001"
   id="namedview1576"
   showgrid="false"
   inkscape:zoom="0.91875"
   inkscape:cx="385.85034"
   inkscape:cy="400"
   inkscape:window-x="-9"
   inkscape:window-y="-9"
   inkscape:window-maximized="1"
   inkscape:current-layer="Layer_1" />
<path
   style="fill:#D6D2C4;"
   d="M395.16,253.844c9.611-20.093,14.996-42.577,14.996-66.296c0-85.002-69.155-154.157-154.157-154.157  s-154.157,69.154-154.157,154.157S170.998,341.704,256,341.704c51.104,0,96.479-24.996,124.544-63.403"
   id="path1537" />
<path
   style="fill:#E5E2DC;"
   d="M368.47,292.852c4.309-4.599,8.348-9.452,12.074-14.551l14.618-24.457  c9.611-20.093,14.996-42.577,14.996-66.296c0-75.076-53.949-137.777-125.113-151.401c-51.608,19.002-88.515,68.664-88.515,126.785  c0,74.466,60.583,135.049,135.049,135.049C344.365,297.982,356.739,296.188,368.47,292.852z"
   id="path1539" />
<path
   style="fill:#ea0028;fill-opacity:1"
   d="M139.418,67.525l25.326,28.453c0,0-40.283,51.128-41.953,87.21H91.928  C91.928,183.187,98.792,106.802,139.418,67.525z"
   id="path1541" />
<path
   style="fill:#ea6428;fill-opacity:1"
   d="M253.637,23.745l-1.111,31.254c0,0-63.783,12.984-88.376,39.44l-24.733-16.206  C139.418,78.232,197.25,27.463,253.637,23.745z"
   id="path1543" />
<path
   style="fill:#FFB92E;"
   d="M367.963,66.783L348.02,90.778c0,0-54.209-36.034-90.308-34.79l-4.075-32.242  C253.637,23.745,325.54,29.452,367.963,66.783z"
   id="path1545" />
<path
   style="fill:#4baf78;fill-opacity:1"
   d="M413.969,186.494l-28.062-4.323c0,0-10.952-64.163-36.615-89.582l18.671-19.869  C367.963,72.718,412.041,130.018,413.969,186.494z"
   id="path1547" />
<path
   style="fill:#e35f46"
   d="m 162.44607,173.26634 c -0.16444,1.29373 0.59464,2.52923 1.82387,2.96977 l 83.33286,29.80882 c 2.82212,1.00645 5.75788,1.43599 8.82615,1.26625 l 0.74168,-0.0661 c 7.77697,-0.71477 14.49874,-5.32414 17.98519,-12.35035 0.0113,-0.0212 0.0537,-0.10501 0.065,-0.12645 0.0664,-0.13496 0.12879,-0.27506 0.19124,-0.41302 l 0.0861,-0.19054 c 0.0765,-0.16812 0.15247,-0.33712 0.19238,-0.43384 0.0385,-0.0898 0.0752,-0.18151 0.14912,-0.36327 0.1042,-0.2597 0.20678,-0.52196 0.27925,-0.72872 l 0.0931,-0.25717 c 0.10335,-0.29541 0.20115,-0.58998 0.26924,-0.82541 l 0.0472,-0.15457 c 0.003,-0.009 0.0321,-0.10511 0.0342,-0.11482 0.0816,-0.28452 0.16127,-0.56656 0.22894,-0.83759 l 0.0634,-0.2684 c 0.0628,-0.25984 0.11991,-0.5195 0.1871,-0.84797 l 0.0623,-0.33614 c 0.0394,-0.21806 0.0772,-0.43501 0.11204,-0.65485 0.002,-0.0156 0.0144,-0.10336 0.0162,-0.11748 l 0.1205,-0.96205 c 0.0199,-0.21164 0.037,-0.42757 0.0546,-0.66375 l 0.0236,-0.36613 c 0.0156,-0.2656 0.0241,-0.53507 0.0283,-0.80772 6.4e-4,-0.0158 0.003,-0.11473 0.002,-0.13095 9.6e-4,-0.0149 0.003,-0.13729 0.002,-0.15114 10e-4,-0.29575 -0.004,-0.59444 -0.0158,-0.96883 l -0.006,-0.12251 c -0.011,-0.31386 -0.0347,-0.62922 -0.0575,-0.89209 -0.007,-0.10538 -0.0144,-0.208 -0.0206,-0.26894 -0.0267,-0.27103 -0.06,-0.54145 -0.0945,-0.81355 -0.003,-0.0173 -0.0156,-0.11754 -0.0174,-0.13309 l -0.026,-0.1938 c -0.0272,-0.18831 -0.061,-0.37467 -0.10103,-0.59596 l -0.0254,-0.1503 c -0.0245,-0.14409 -0.0483,-0.28566 -0.0745,-0.41924 -0.0116,-0.061 -0.0263,-0.12062 -0.0416,-0.18381 -0.544,-2.57266 -1.52836,-5.01044 -2.92312,-7.2425 v 0 c -2.68669,-4.29962 -6.63245,-7.47404 -11.40757,-9.18098 L 261.85,163.69103 c -2.83542,-0.89552 -5.78505,-1.21148 -8.76844,-0.93797 l -88.13213,8.09345 c -1.29787,0.11764 -2.34006,1.12379 -2.50426,2.41972 z m 110.76956,19.16882 z m 0.35341,-0.92714 v 0 l 5.3e-4,8.6e-4 z m 1.03131,-8.30202 z"
   id="path1549" />
<path
   style="fill:#7C7A75;"
   d="M256,361.51c-6.387,0-12.698-0.451-18.922-1.323v104.822h37.843V360.186  C268.698,361.058,262.384,361.51,256,361.51z"
   id="path1551" />
<path
   style="fill:#36A1CB;"
   d="M346.12,483.095l-13.081-30.798c-1.047-2.466-3.467-4.067-6.147-4.067H185.109  c-2.678,0-5.099,1.601-6.145,4.067l-13.082,30.798c-0.876,2.064-0.66,4.428,0.578,6.296c1.237,1.869,3.328,2.993,5.57,2.993h167.945  c2.241,0,4.333-1.124,5.569-2.993C346.779,487.523,346.996,485.159,346.12,483.095z"
   id="path1553" />
<path
   style="fill:#2393B5;"
   d="M193.729,489.392c-1.237-1.87-1.454-4.234-0.578-6.296l13.082-30.798  c1.046-2.466,3.467-4.067,6.145-4.067h-27.27c-2.678,0-5.099,1.601-6.145,4.067l-13.082,30.798c-0.876,2.064-0.66,4.428,0.578,6.296  c1.237,1.869,3.328,2.993,5.57,2.993h27.27C197.057,492.385,194.965,491.261,193.729,489.392z"
   id="path1555" />
<path
   style="fill:#7C7A75;"
   d="M409.105,178.146h-16.203c-1.921-30.671-13.953-59.451-34.373-82.375l11.635-11.636  c3.26-3.26,3.26-8.546,0-11.805c-3.26-3.26-8.546-3.26-11.805,0l-11.657,11.657c-23.018-20.348-51.792-32.239-82.354-34.077V33.391  c0-4.61-3.736-8.348-8.348-8.348c-4.61,0-8.348,3.738-8.348,8.348V49.91c-30.553,1.838-59.335,13.732-82.352,34.079l-11.658-11.658  c-3.26-3.26-8.546-3.26-11.805,0c-3.261,3.26-3.261,8.545,0,11.805l11.635,11.636c-20.411,22.915-32.452,51.701-34.374,82.374h-16.2  c-4.61,0-8.348,3.738-8.348,8.348s3.738,8.348,8.348,8.348h30.171c4.611,0,8.348-3.738,8.348-8.348c0-3.654-2.35-6.751-5.62-7.883  c1.834-27.5,12.685-52.293,29.624-71.543c1.15,0.561,2.4,0.848,3.652,0.848c2.136,0,4.273-0.815,5.902-2.445  c2.579-2.578,3.11-6.42,1.609-9.529c19.358-16.897,44.225-27.63,71.644-29.345c1.214,3.109,4.232,5.314,7.769,5.314  c3.535,0,6.549-2.2,7.768-5.303c27.094,1.775,51.967,12.755,71.417,29.834c-1.214,3.012-0.602,6.587,1.839,9.028  c1.631,1.629,3.767,2.445,5.902,2.445c1.076,0,2.152-0.208,3.162-0.621c17.15,19.347,28.249,44.154,30.112,71.318  c-3.267,1.133-5.615,4.228-5.615,7.88c0,4.61,3.738,8.348,8.348,8.348h30.171c4.611,0,8.348-3.738,8.348-8.348  C417.452,181.884,413.715,178.146,409.105,178.146z"
   id="path1557" />
<g
   id="g1563">
	<path
   style="fill:#F5F5F5;"
   d="M294.055,268.639h-75.687c-4.61,0-8.348-3.738-8.348-8.348s3.738-8.348,8.348-8.348h75.687   c4.61,0,8.348,3.738,8.348,8.348C302.403,264.902,298.665,268.639,294.055,268.639z"
   id="path1559" />
	<path
   style="fill:#F5F5F5;"
   d="M274.922,297.789h-37.843c-4.61,0-8.348-3.736-8.348-8.348c0-4.611,3.738-8.348,8.348-8.348h37.843   c4.611,0,8.348,3.736,8.348,8.348C283.27,294.052,279.533,297.789,274.922,297.789z"
   id="path1561" />
</g>
<g
   id="g1569">
	<path
   style="fill:#CCC3A8;"
   d="M256,375.096c-103.415,0-187.548-84.133-187.548-187.548C68.452,84.134,152.585,0,256,0   c103.413,0,187.548,84.134,187.548,187.548C443.548,290.963,359.413,375.096,256,375.096z M395.16,253.844   c9.611-20.093,14.996-42.577,14.996-66.296c0-85.002-69.155-154.157-154.157-154.157s-154.157,69.154-154.157,154.157   S170.998,341.704,256,341.704c51.104,0,96.479-24.996,124.544-63.403"
   id="path1565" />
	<path
   style="fill:#CCC3A8;"
   d="M498.05,480.671h-83.848H97.798H13.95c-7.704,0-13.95,6.246-13.95,13.95v3.428   C0,505.754,6.245,512,13.95,512h83.848h299.276h28.198h72.779c7.704,0,13.95-6.245,13.95-13.95v-3.428   C512,486.918,505.755,480.671,498.05,480.671z"
   id="path1567" />
</g>
<path
   style="fill:#C9B585;"
   d="M23.003,498.049v-3.427c0-7.706,6.245-13.951,13.951-13.951h-0.742H13.951  C6.245,480.67,0,486.916,0,494.621v3.427C0,505.754,6.245,512,13.951,512h22.261h0.742C29.249,512,23.003,505.754,23.003,498.049z"
   id="path1571" />
<path
   style="fill:#cc3c29"
   d="m 255.56671,181.66353 -0.7417,0.0661 c -0.61448,0.0337 -1.22186,0.0336 -1.82489,0.0177 l 0.004,0.006 c -0.008,-0.001 -0.0363,-0.004 -0.0557,-0.004 -1.0901,-0.031 -2.161,-0.15782 -3.21789,-0.34523 -16.14573,-1.76885 -86.47108,-9.64603 -86.47108,-9.64603 -0.16441,1.29371 0.59463,2.5292 1.82387,2.96974 l 83.33286,29.80882 c 2.82215,1.00646 5.75787,1.43601 8.82617,1.26627 l 0.74168,-0.0661 c 7.77696,-0.71476 14.49873,-5.32414 17.9852,-12.35036 0.0113,-0.0213 0.0537,-0.105 0.065,-0.12644 0.0664,-0.13496 0.12879,-0.27507 0.19115,-0.41307 l 0.0861,-0.19054 c 0.0766,-0.16807 0.15248,-0.3371 0.1924,-0.43382 0.0385,-0.0898 0.0752,-0.18151 0.14909,-0.36328 0.10423,-0.25969 0.2068,-0.52195 0.27928,-0.72872 l 0.093,-0.25716 c 0.10336,-0.29543 0.20117,-0.58996 0.26925,-0.82542 l 0.0471,-0.15453 c 0.003,-0.009 0.0321,-0.10512 0.0342,-0.11482 0.0816,-0.28453 0.16127,-0.56657 0.22892,-0.83759 l 0.0635,-0.26835 c 0.0628,-0.25983 0.11991,-0.51951 0.18711,-0.84798 l 0.0623,-0.33613 c 0.0394,-0.21807 0.0772,-0.43502 0.11204,-0.65483 0.002,-0.0156 0.0145,-0.1035 0.0162,-0.1175 l 0.1205,-0.96204 c 0.0199,-0.21163 0.037,-0.42759 0.0545,-0.66376 l 0.0236,-0.36611 c 0.0156,-0.26567 0.0241,-0.53508 0.0283,-0.80772 0.002,-0.0161 0.002,-0.11485 0.002,-0.13094 9.5e-4,-0.0149 0.003,-0.13728 0.002,-0.15113 10e-4,-0.29575 -0.004,-0.59444 -0.0158,-0.96884 l -0.006,-0.12251 c -0.011,-0.31386 -0.0347,-0.62924 -0.0575,-0.89211 -0.007,-0.10538 -0.0144,-0.20801 -0.0206,-0.26893 -0.0267,-0.27103 -0.06,-0.54146 -0.0945,-0.81355 -0.003,-0.0172 -0.0156,-0.11755 -0.0174,-0.13309 l -0.0261,-0.19381 c -0.0271,-0.18831 -0.0598,-0.37396 -0.10101,-0.59597 l -0.0254,-0.1503 c -0.0245,-0.14409 -0.0483,-0.28565 -0.0745,-0.41924 -0.0116,-0.061 -0.0263,-0.12056 -0.0416,-0.18381 -0.544,-2.57266 -1.52839,-5.01043 -2.92311,-7.2425 v 0 c -0.45203,-0.72338 -0.95176,-1.40045 -1.47068,-2.05728 -3.52471,6.86495 -10.16368,11.36721 -17.8374,12.0717 z"
   id="path1573" />
</svg>
