<svg xmlns="http://www.w3.org/2000/svg" xmlns:xlink="http://www.w3.org/1999/xlink" width="500" zoomAndPan="magnify" viewBox="0 0 375 374.999991" height="500" preserveAspectRatio="xMidYMid meet" version="1.0"><defs><g/><clipPath id="232c29631e"><path d="M 216.894531 142.84375 L 306.144531 142.84375 L 306.144531 232.09375 L 216.894531 232.09375 Z M 216.894531 142.84375 " clip-rule="nonzero"/></clipPath></defs><rect x="-37.5" width="450" fill="#ffffff" y="-37.499999" height="449.999989" fill-opacity="1"/><rect x="-37.5" width="450" fill="#f8f8ff" y="-37.499999" height="449.999989" fill-opacity="1"/><path fill="#ffffff" d="M 254.796875 193.214844 C 255.355469 193.214844 256.6875 193.070312 257.753906 191.929688 C 258.722656 190.886719 259.0625 189.53125 259.109375 188.171875 C 259.183594 186.015625 258.527344 184.5625 258.019531 183.859375 C 257.800781 183.566406 257.292969 182.960938 256.371094 182.574219 C 255.644531 182.285156 255.015625 182.257812 254.722656 182.257812 C 253.777344 182.257812 253.125 182.574219 252.808594 182.742188 C 251.089844 183.714844 250.480469 185.820312 250.480469 187.640625 C 250.480469 189.964844 251.210938 191.226562 251.914062 191.976562 C 252.664062 192.777344 253.679688 193.214844 254.796875 193.214844 " fill-opacity="1" fill-rule="nonzero"/><path fill="#ffffff" d="M 237.152344 191.371094 L 240.667969 179.207031 L 245.222656 179.207031 L 239.285156 196.316406 L 234.921875 196.316406 L 229.058594 179.207031 L 233.613281 179.207031 Z M 247.890625 182.160156 C 248.761719 180.878906 250.75 178.671875 254.722656 178.671875 C 257.972656 178.671875 259.933594 180.125 260.832031 181.046875 C 262.480469 182.742188 263.398438 185.53125 263.398438 187.882812 C 263.398438 190.5 262.261719 193.308594 260.152344 195.03125 C 259.230469 195.78125 257.582031 196.824219 254.773438 196.824219 C 253.730469 196.824219 250.894531 196.65625 248.714844 194.378906 C 246.410156 191.953125 246.265625 188.707031 246.265625 187.6875 C 246.265625 186.792969 246.386719 184.367188 247.890625 182.160156 Z M 263.789062 179.207031 L 276.996094 179.207031 L 276.996094 182.574219 L 272.5625 182.574219 L 272.5625 196.316406 L 268.246094 196.316406 L 268.246094 182.574219 L 263.789062 182.574219 Z M 278.886719 179.207031 L 291.539062 179.207031 L 291.539062 182.5 L 283.152344 182.5 L 283.152344 185.628906 L 290.980469 185.628906 L 290.980469 188.875 L 283.152344 188.875 L 283.152344 192.949219 L 292.3125 192.949219 L 292.3125 196.316406 L 278.886719 196.316406 Z M 302.136719 201.046875 C 303.5625 196.78125 304.335938 192.21875 304.335938 187.46875 C 304.335938 182.742188 303.566406 178.191406 302.152344 173.9375 C 302.128906 173.886719 302.105469 173.835938 302.078125 173.785156 L 220.9375 173.785156 C 219.492188 178.082031 218.703125 182.683594 218.703125 187.46875 C 218.703125 192.167969 219.460938 196.683594 220.859375 200.910156 C 220.910156 200.957031 220.957031 201.003906 221.007812 201.046875 L 302.136719 201.046875 " fill-opacity="1" fill-rule="nonzero"/><path fill="#bf1b2c" d="M 236.699219 210.4375 L 237.886719 206.785156 L 239.074219 210.4375 L 242.914062 210.4375 L 239.804688 212.691406 L 240.992188 216.34375 L 237.886719 214.089844 L 234.78125 216.34375 L 235.964844 212.691406 L 232.859375 210.4375 Z M 248.097656 215.464844 L 249.28125 211.8125 L 250.46875 215.464844 L 254.308594 215.464844 L 251.203125 217.722656 L 252.390625 221.375 L 249.28125 219.117188 L 246.175781 221.375 L 247.363281 217.722656 L 244.257812 215.464844 Z M 260.332031 218.75 L 261.519531 215.097656 L 262.707031 218.75 L 266.546875 218.75 L 263.441406 221.007812 L 264.625 224.660156 L 261.519531 222.402344 L 258.414062 224.660156 L 259.601562 221.007812 L 256.492188 218.75 Z M 272.617188 215.464844 L 273.804688 211.8125 L 274.988281 215.464844 L 278.828125 215.464844 L 275.722656 217.722656 L 276.910156 221.375 L 273.804688 219.117188 L 270.695312 221.375 L 271.882812 217.722656 L 268.777344 215.464844 Z M 284.011719 210.4375 L 285.199219 206.785156 L 286.386719 210.4375 L 290.226562 210.4375 L 287.121094 212.691406 L 288.304688 216.34375 L 285.199219 214.089844 L 282.09375 216.34375 L 283.28125 212.691406 L 280.171875 210.4375 Z M 231.246094 217.746094 C 238.996094 225.496094 249.695312 230.285156 261.519531 230.285156 C 273.347656 230.285156 284.042969 225.496094 291.796875 217.746094 C 295.976562 213.566406 299.292969 208.523438 301.464844 202.914062 L 221.578125 202.914062 C 223.746094 208.523438 227.066406 213.566406 231.246094 217.746094 " fill-opacity="1" fill-rule="nonzero"/><path fill="#3d60b0" d="M 288.304688 168.0625 L 285.199219 165.808594 L 282.09375 168.0625 L 283.28125 164.410156 L 280.171875 162.15625 L 284.011719 162.15625 L 285.199219 158.503906 L 286.386719 162.15625 L 290.226562 162.15625 L 287.121094 164.410156 Z M 276.910156 161.644531 L 273.800781 159.386719 L 270.695312 161.644531 L 271.882812 157.992188 L 268.777344 155.738281 L 272.617188 155.738281 L 273.800781 152.085938 L 274.988281 155.738281 L 278.828125 155.738281 L 275.722656 157.992188 Z M 264.625 158.503906 L 261.519531 156.246094 L 258.414062 158.503906 L 259.601562 154.851562 L 256.492188 152.59375 L 260.332031 152.59375 L 261.519531 148.941406 L 262.707031 152.59375 L 266.546875 152.59375 L 263.441406 154.851562 Z M 252.390625 161.644531 L 249.285156 159.386719 L 246.175781 161.644531 L 247.363281 157.992188 L 244.257812 155.738281 L 248.097656 155.738281 L 249.285156 152.085938 L 250.46875 155.738281 L 254.308594 155.738281 L 251.203125 157.992188 Z M 240.992188 168.0625 L 237.886719 165.808594 L 234.78125 168.0625 L 235.964844 164.410156 L 232.859375 162.15625 L 236.699219 162.15625 L 237.886719 158.503906 L 239.074219 162.15625 L 242.914062 162.15625 L 239.804688 164.410156 Z M 291.796875 157.195312 C 284.042969 149.445312 273.347656 144.65625 261.519531 144.65625 C 249.695312 144.65625 238.996094 149.445312 231.246094 157.195312 C 227.089844 161.351562 223.785156 166.359375 221.613281 171.933594 L 301.429688 171.933594 C 299.257812 166.359375 295.953125 161.351562 291.796875 157.195312 " fill-opacity="1" fill-rule="nonzero"/><path fill="#3d60b0" d="M 302.101562 173.785156 L 302.085938 173.742188 L 220.953125 173.742188 L 220.9375 173.785156 L 302.101562 173.785156 " fill-opacity="1" fill-rule="nonzero"/><g clip-path="url(#232c29631e)"><path fill="#1d264c" d="M 219.410156 201.953125 C 219.410156 201.453125 219.8125 201.046875 220.3125 201.046875 L 220.902344 201.046875 C 220.886719 201.003906 220.875 200.957031 220.859375 200.910156 C 219.460938 196.683594 218.703125 192.167969 218.703125 187.46875 C 218.703125 182.683594 219.492188 178.082031 220.9375 173.785156 L 220.953125 173.742188 L 220.3125 173.742188 C 219.8125 173.742188 219.410156 173.335938 219.410156 172.835938 C 219.410156 172.335938 219.8125 171.929688 220.3125 171.929688 L 221.613281 171.929688 C 223.785156 166.359375 227.089844 161.351562 231.246094 157.195312 C 238.996094 149.445312 249.695312 144.65625 261.519531 144.65625 C 273.347656 144.65625 284.042969 149.445312 291.796875 157.195312 C 295.953125 161.351562 299.257812 166.359375 301.429688 171.929688 L 302.722656 171.929688 C 303.222656 171.929688 303.625 172.335938 303.625 172.835938 C 303.625 173.335938 303.222656 173.742188 302.722656 173.742188 L 302.085938 173.742188 L 302.101562 173.785156 C 302.117188 173.835938 302.136719 173.886719 302.152344 173.9375 C 303.566406 178.191406 304.335938 182.742188 304.335938 187.46875 C 304.335938 192.21875 303.5625 196.78125 302.136719 201.046875 L 302.722656 201.046875 C 303.222656 201.046875 303.625 201.453125 303.625 201.953125 C 303.625 202.453125 303.222656 202.855469 302.722656 202.855469 L 301.484375 202.855469 L 301.464844 202.914062 C 299.292969 208.523438 295.976562 213.566406 291.796875 217.746094 C 284.042969 225.496094 273.347656 230.285156 261.519531 230.285156 C 249.695312 230.285156 238.996094 225.496094 231.246094 217.746094 C 227.066406 213.566406 223.746094 208.523438 221.578125 202.914062 L 221.554688 202.855469 L 220.3125 202.855469 C 219.8125 202.855469 219.410156 202.453125 219.410156 201.953125 Z M 261.519531 232.09375 C 273.839844 232.09375 285 227.097656 293.074219 219.023438 C 301.148438 210.953125 306.144531 199.789062 306.144531 187.46875 C 306.144531 175.152344 301.148438 163.988281 293.074219 155.914062 C 285.003906 147.839844 273.839844 142.84375 261.519531 142.847656 C 249.199219 142.84375 238.039062 147.839844 229.964844 155.914062 C 221.890625 163.988281 216.894531 175.152344 216.894531 187.46875 C 216.894531 199.789062 221.890625 210.953125 229.964844 219.023438 C 238.039062 227.097656 249.199219 232.09375 261.519531 232.09375 " fill-opacity="1" fill-rule="nonzero"/></g><path fill="#1d264c" d="M 302.085938 173.742188 L 302.722656 173.742188 C 303.222656 173.742188 303.625 173.335938 303.625 172.835938 C 303.625 172.335938 303.222656 171.933594 302.722656 171.933594 L 220.3125 171.933594 C 219.8125 171.933594 219.410156 172.335938 219.410156 172.835938 C 219.410156 173.335938 219.8125 173.742188 220.3125 173.742188 L 302.085938 173.742188 " fill-opacity="1" fill-rule="nonzero"/><path fill="#1d264c" d="M 301.484375 202.855469 L 302.722656 202.855469 C 303.222656 202.855469 303.625 202.453125 303.625 201.953125 C 303.625 201.453125 303.222656 201.046875 302.722656 201.046875 L 220.3125 201.046875 C 219.8125 201.046875 219.410156 201.453125 219.410156 201.953125 C 219.410156 202.453125 219.8125 202.855469 220.3125 202.855469 L 301.484375 202.855469 " fill-opacity="1" fill-rule="nonzero"/><path fill="#1d264c" d="M 234.921875 196.316406 L 239.285156 196.316406 L 245.222656 179.207031 L 240.667969 179.207031 L 237.152344 191.371094 L 233.613281 179.207031 L 229.058594 179.207031 L 234.921875 196.316406 " fill-opacity="1" fill-rule="nonzero"/><path fill="#1d264c" d="M 252.808594 182.742188 C 253.125 182.574219 253.777344 182.257812 254.722656 182.257812 C 255.015625 182.257812 255.644531 182.285156 256.371094 182.574219 C 257.292969 182.960938 257.800781 183.566406 258.019531 183.859375 C 258.527344 184.5625 259.183594 186.015625 259.109375 188.171875 C 259.0625 189.53125 258.722656 190.886719 257.753906 191.929688 C 256.6875 193.070312 255.355469 193.214844 254.796875 193.214844 C 253.679688 193.214844 252.664062 192.777344 251.914062 191.976562 C 251.210938 191.226562 250.480469 189.964844 250.480469 187.640625 C 250.480469 185.820312 251.089844 183.714844 252.808594 182.742188 Z M 254.773438 196.824219 C 257.582031 196.824219 259.230469 195.78125 260.152344 195.03125 C 262.261719 193.308594 263.398438 190.5 263.398438 187.882812 C 263.398438 185.53125 262.480469 182.742188 260.832031 181.046875 C 259.933594 180.125 257.972656 178.671875 254.722656 178.671875 C 250.75 178.671875 248.761719 180.878906 247.890625 182.164062 C 246.386719 184.367188 246.265625 186.792969 246.265625 187.6875 C 246.265625 188.707031 246.410156 191.953125 248.714844 194.378906 C 250.894531 196.65625 253.730469 196.824219 254.773438 196.824219 " fill-opacity="1" fill-rule="nonzero"/><path fill="#1d264c" d="M 268.246094 196.316406 L 272.5625 196.316406 L 272.5625 182.574219 L 276.996094 182.574219 L 276.996094 179.207031 L 263.789062 179.207031 L 263.789062 182.574219 L 268.246094 182.574219 L 268.246094 196.316406 " fill-opacity="1" fill-rule="nonzero"/><path fill="#1d264c" d="M 292.3125 192.949219 L 283.152344 192.949219 L 283.152344 188.875 L 290.980469 188.875 L 290.980469 185.628906 L 283.152344 185.628906 L 283.152344 182.5 L 291.535156 182.5 L 291.535156 179.207031 L 278.886719 179.207031 L 278.886719 196.316406 L 292.3125 196.316406 L 292.3125 192.949219 " fill-opacity="1" fill-rule="nonzero"/><path fill="#ffffff" d="M 258.414062 224.660156 L 261.519531 222.402344 L 264.625 224.660156 L 263.441406 221.007812 L 266.546875 218.75 L 262.707031 218.75 L 261.519531 215.097656 L 260.332031 218.75 L 256.492188 218.75 L 259.601562 221.007812 L 258.414062 224.660156 " fill-opacity="1" fill-rule="nonzero"/><path fill="#ffffff" d="M 246.175781 221.375 L 249.28125 219.117188 L 252.390625 221.375 L 251.203125 217.722656 L 254.308594 215.464844 L 250.46875 215.464844 L 249.28125 211.8125 L 248.097656 215.464844 L 244.257812 215.464844 L 247.363281 217.722656 L 246.175781 221.375 " fill-opacity="1" fill-rule="nonzero"/><path fill="#ffffff" d="M 234.78125 216.34375 L 237.886719 214.089844 L 240.992188 216.34375 L 239.804688 212.691406 L 242.914062 210.4375 L 239.074219 210.4375 L 237.886719 206.785156 L 236.699219 210.4375 L 232.859375 210.4375 L 235.964844 212.691406 L 234.78125 216.34375 " fill-opacity="1" fill-rule="nonzero"/><path fill="#ffffff" d="M 270.695312 221.375 L 273.800781 219.117188 L 276.910156 221.375 L 275.722656 217.722656 L 278.828125 215.464844 L 274.988281 215.464844 L 273.800781 211.8125 L 272.617188 215.464844 L 268.777344 215.464844 L 271.882812 217.722656 L 270.695312 221.375 " fill-opacity="1" fill-rule="nonzero"/><path fill="#ffffff" d="M 282.09375 216.34375 L 285.199219 214.089844 L 288.304688 216.34375 L 287.117188 212.691406 L 290.226562 210.4375 L 286.386719 210.4375 L 285.199219 206.785156 L 284.011719 210.4375 L 280.171875 210.4375 L 283.28125 212.691406 L 282.09375 216.34375 " fill-opacity="1" fill-rule="nonzero"/><path fill="#ffffff" d="M 262.707031 152.59375 L 261.519531 148.941406 L 260.332031 152.59375 L 256.492188 152.59375 L 259.601562 154.851562 L 258.414062 158.503906 L 261.519531 156.246094 L 264.625 158.503906 L 263.441406 154.851562 L 266.546875 152.59375 L 262.707031 152.59375 " fill-opacity="1" fill-rule="nonzero"/><path fill="#ffffff" d="M 239.074219 162.15625 L 237.886719 158.503906 L 236.699219 162.15625 L 232.859375 162.15625 L 235.964844 164.414062 L 234.78125 168.066406 L 237.886719 165.808594 L 240.992188 168.066406 L 239.804688 164.414062 L 242.914062 162.15625 L 239.074219 162.15625 " fill-opacity="1" fill-rule="nonzero"/><path fill="#ffffff" d="M 250.46875 155.734375 L 249.285156 152.085938 L 248.097656 155.734375 L 244.257812 155.734375 L 247.363281 157.992188 L 246.175781 161.644531 L 249.285156 159.386719 L 252.390625 161.644531 L 251.203125 157.992188 L 254.308594 155.734375 L 250.46875 155.734375 " fill-opacity="1" fill-rule="nonzero"/><path fill="#ffffff" d="M 274.988281 155.734375 L 273.804688 152.085938 L 272.617188 155.734375 L 268.777344 155.734375 L 271.882812 157.992188 L 270.695312 161.644531 L 273.804688 159.386719 L 276.910156 161.644531 L 275.722656 157.992188 L 278.828125 155.734375 L 274.988281 155.734375 " fill-opacity="1" fill-rule="nonzero"/><path fill="#ffffff" d="M 286.386719 162.15625 L 285.199219 158.503906 L 284.011719 162.15625 L 280.171875 162.15625 L 283.28125 164.414062 L 282.09375 168.066406 L 285.199219 165.808594 L 288.304688 168.066406 L 287.117188 164.414062 L 290.226562 162.15625 L 286.386719 162.15625 " fill-opacity="1" fill-rule="nonzero"/><g fill="#000000" fill-opacity="1"><g transform="translate(46.214833, 196.499987)"><g><path d="M 6.125 0 L 2.421875 0 L 2.421875 -18.6875 L 6.125 -18.6875 Z M 6.125 0 "/></g></g></g><g fill="#000000" fill-opacity="1"><g transform="translate(54.779476, 196.499987)"><g><path d="M 6.015625 0 L 2.421875 0 L 2.421875 -18.6875 L 6.65625 -18.6875 L 14.171875 -6.65625 L 14.5 -6.703125 L 14.5 -18.6875 L 18.0625 -18.6875 L 18.0625 0 L 14.265625 0 L 6.328125 -12.859375 L 6.015625 -12.8125 Z M 6.015625 0 "/></g></g></g><g fill="#000000" fill-opacity="1"><g transform="translate(75.270705, 196.499987)"><g><path d="M 14.28125 -18.6875 L 14.28125 -15.59375 L 6.125 -15.59375 L 6.125 -10.65625 L 13.53125 -10.65625 L 13.53125 -7.59375 L 6.125 -7.59375 L 6.125 0 L 2.421875 0 L 2.421875 -18.6875 Z M 14.28125 -18.6875 "/></g></g></g><g fill="#000000" fill-opacity="1"><g transform="translate(90.38027, 196.499987)"><g><path d="M 10.1875 0.265625 C 8.476562 0.265625 6.96875 -0.0820312 5.65625 -0.78125 C 4.351562 -1.476562 3.328125 -2.546875 2.578125 -3.984375 C 1.835938 -5.421875 1.46875 -7.207031 1.46875 -9.34375 C 1.46875 -11.488281 1.835938 -13.273438 2.578125 -14.703125 C 3.328125 -16.140625 4.351562 -17.207031 5.65625 -17.90625 C 6.96875 -18.613281 8.476562 -18.96875 10.1875 -18.96875 C 11.90625 -18.96875 13.414062 -18.617188 14.71875 -17.921875 C 16.019531 -17.222656 17.039062 -16.15625 17.78125 -14.71875 C 18.519531 -13.28125 18.890625 -11.488281 18.890625 -9.34375 C 18.890625 -7.207031 18.519531 -5.414062 17.78125 -3.96875 C 17.039062 -2.53125 16.019531 -1.460938 14.71875 -0.765625 C 13.414062 -0.078125 11.90625 0.265625 10.1875 0.265625 Z M 10.1875 -2.9375 C 11.769531 -2.9375 12.976562 -3.445312 13.8125 -4.46875 C 14.65625 -5.488281 15.078125 -7.113281 15.078125 -9.34375 C 15.078125 -11.582031 14.65625 -13.210938 13.8125 -14.234375 C 12.976562 -15.253906 11.769531 -15.765625 10.1875 -15.765625 C 8.59375 -15.765625 7.375 -15.253906 6.53125 -14.234375 C 5.695312 -13.210938 5.28125 -11.582031 5.28125 -9.34375 C 5.28125 -7.113281 5.695312 -5.488281 6.53125 -4.46875 C 7.375 -3.445312 8.59375 -2.9375 10.1875 -2.9375 Z M 10.1875 -2.9375 "/></g></g></g><g fill="#000000" fill-opacity="1"><g transform="translate(110.743668, 196.499987)"><g><path d="M 2.421875 0 L 2.421875 -18.6875 L 9.9375 -18.6875 C 11.875 -18.6875 13.332031 -18.238281 14.3125 -17.34375 C 15.300781 -16.457031 15.796875 -15.234375 15.796875 -13.671875 C 15.796875 -12.535156 15.503906 -11.601562 14.921875 -10.875 C 14.347656 -10.15625 13.492188 -9.601562 12.359375 -9.21875 L 12.359375 -8.953125 C 12.941406 -8.691406 13.414062 -8.3125 13.78125 -7.8125 C 14.144531 -7.3125 14.488281 -6.566406 14.8125 -5.578125 L 16.671875 0 L 12.875 0 L 11.046875 -5.59375 C 10.859375 -6.15625 10.644531 -6.585938 10.40625 -6.890625 C 10.175781 -7.203125 9.878906 -7.425781 9.515625 -7.5625 C 9.148438 -7.707031 8.679688 -7.78125 8.109375 -7.78125 L 6.125 -7.78125 L 6.125 0 Z M 9.484375 -10.71875 C 11.273438 -10.71875 12.171875 -11.550781 12.171875 -13.21875 C 12.171875 -14.914062 11.273438 -15.765625 9.484375 -15.765625 L 6.125 -15.765625 L 6.125 -10.71875 Z M 9.484375 -10.71875 "/></g></g></g><g fill="#000000" fill-opacity="1"><g transform="translate(128.218097, 196.499987)"><g><path d="M 5.8125 0 L 2.421875 0 L 2.421875 -18.6875 L 7.265625 -18.6875 L 12 -4.953125 L 12.265625 -4.953125 L 16.96875 -18.6875 L 21.6875 -18.6875 L 21.6875 0 L 18.1875 0 L 18.1875 -12.359375 L 17.859375 -12.40625 L 13.546875 0 L 10.453125 0 L 6.140625 -12.40625 L 5.8125 -12.359375 Z M 5.8125 0 "/></g></g></g><g fill="#000000" fill-opacity="1"><g transform="translate(152.339711, 196.499987)"><g/></g></g><g fill="#000000" fill-opacity="1"><g transform="translate(158.513924, 196.499987)"><g><path d="M 14.984375 -18.6875 L 14.984375 -15.59375 L 9.59375 -15.59375 L 9.59375 0 L 5.90625 0 L 5.90625 -15.59375 L 0.515625 -15.59375 L 0.515625 -18.6875 Z M 14.984375 -18.6875 "/></g></g></g><g fill="#000000" fill-opacity="1"><g transform="translate(174.006981, 196.499987)"><g><path d="M 14.5 -11.65625 L 14.5 -18.6875 L 18.1875 -18.6875 L 18.1875 0 L 14.5 0 L 14.5 -8.515625 L 6.125 -8.515625 L 6.125 0 L 2.421875 0 L 2.421875 -18.6875 L 6.125 -18.6875 L 6.125 -11.65625 Z M 14.5 -11.65625 "/></g></g></g><g fill="#000000" fill-opacity="1"><g transform="translate(194.62604, 196.499987)"><g><path d="M 6.125 -8.203125 L 6.125 -3.09375 L 15.046875 -3.09375 L 15.046875 0 L 2.421875 0 L 2.421875 -18.6875 L 14.84375 -18.6875 L 14.84375 -15.59375 L 6.125 -15.59375 L 6.125 -11.234375 L 13.75 -11.234375 L 13.75 -8.203125 Z M 6.125 -8.203125 "/></g></g></g><g fill="#000000" fill-opacity="1"><g transform="translate(210.699201, 196.499987)"><g/></g></g></svg>